<?xml version="1.0" encoding="utf-8"?>
<!-- Generator: Adobe Illustrator 21.1.0, SVG Export Plug-In . SVG Version: 6.00 Build 0)  -->
<svg version="1.1" id="Footer" xmlns="http://www.w3.org/2000/svg" xmlns:xlink="http://www.w3.org/1999/xlink" x="0px" y="0px"
	 viewBox="0 0 1200 2400" style="enable-background:new 0 0 1200 2400;" xml:space="preserve">
<style type="text/css">
	.st0{fill:none;}
	.st1{fill:#160D05;}
	.st2{fill:#CCCCCC;}
	.st3{font-family:'Courier';}
	.st4{font-size:23.238px;}
	.st5{fill:#231F20;}
	.st6{font-family:'AvantGardeITCbyBT-Book';}
	.st7{font-size:33px;}
	.st8{font-size:36px;}
	.st9{font-family:'BenguiatBold';}
	.st10{font-size:26.3px;}
	.st11{fill:#999999;}
	.st12{enable-background:new    ;}
	.st13{fill:#030303;}
	.st14{font-size:25px;}
	.st15{fill:#E0B7E1;}
	.st16{font-family:'ArialMT';}
	.st17{font-size:18px;}
	.st18{fill:#FFFFFF;}
	.st19{font-size:26px;}
	.st20{letter-spacing:28;}
	.st21{letter-spacing:20;}
	.st22{letter-spacing:21;}
</style>
<path class="st0" d="M0,0"/>
<path id="Background" class="st1" d="M1200,2400H0v-120h1200V2400z"/>
<text transform="matrix(1 0 0 1 370.7271 2350.5664)" class="st2 st3 st4">StyleTile BY VMD140:WebProduction</text>
<g>
	<text transform="matrix(1 0 0 1 97.7915 1995.7466)" class="st5 st6 st7">ABCDEFGHIJKLMNOPQRSTUVWXYZ</text>
</g>
<g>
	<text transform="matrix(1 0 0 1 149.3212 2042.3057)" class="st5 st6 st7">abcdefghijklmnopqrstuvwxyz</text>
</g>
<text transform="matrix(1.003 0 0 1 142.3779 2096.8652)" class="st1 st6 st8">1234567890!@#$%^&amp;*()</text>
<text transform="matrix(1.003 0 0 1 784.7786 1945.1865)" class="st1 st9 st10">Display</text>
<text transform="matrix(1.003 0 0 1 601.6005 1995.7471)" class="st1 st9 st10">ABCDEFGHIJKLMNOPQRSTUVWXYZ</text>
<text transform="matrix(1.003 0 0 1 647.8881 2042.3057)" class="st1 st9 st10">abcdefghijklmnopqrstuvwxyz</text>
<text transform="matrix(1.003 0 0 1 725.3779 2096.8652)" class="st1 st9 st10">1234567890!@#$%^&amp;*()</text>
<g>
	<text transform="matrix(1 0 0 1 437.4193 1866)" class="st11 st9 st7">typography </text>
</g>
<rect x="-30" y="1742" class="st11" width="33" height="4"/>
<g>
	<text transform="matrix(1 0 0 1 478.3587 1522.001)" class="st11 st9 st7">COLORS</text>
</g>
<text transform="matrix(0.9868 0 0 1 163.2964 1256.0027)" class="st12"><tspan x="0" y="0" class="st13 st9 st14">80’s, sci-fi, horror, fantasy, synthesizer, sinister, retro,</tspan><tspan x="97.7" y="30" class="st13 st9 st14"> child-like, magic, cool, burning neon light</tspan></text>
<g>
	<text transform="matrix(1 0 0 1 399.8278 1171.9995)" class="st11 st9 st7">Defining Adjectives</text>
</g>
<path id="Image_3" class="st2" d="M1200,1070H800V720h400V1070z"/>
<path id="Image_1" class="st2" d="M400,1070H0V720h400V1070z"/>
<rect x="787" y="715" class="st15" width="5" height="8"/>
<text transform="matrix(1 0 0 1 507.0952 648)" class="st11 st16 st17">STYLE / INSPIRATION</text>
<path id="Background-2" class="st1" d="M1200,550H0V0h1200V550z"/>
<path id="Image_2" class="st11" d="M801,1070H401V720h400V1070z"/>
<rect x="-434" y="686" class="st0" width="278" height="304"/>
<g>
	<text transform="matrix(1 0 0 1 323.9814 1945.1865)" class="st5 st6 st7">Body</text>
</g>
<image style="overflow:visible;" width="1200" height="630" xlink:href="../../Downloads/strange-site.png"  transform="matrix(1 0 0 0.873 0 0)">
</image>
<image style="overflow:visible;" width="1440" height="960" xlink:href="97173E3E.jpg"  transform="matrix(0.2785 0 0 0.3646 0 720)">
</image>
<image style="overflow:visible;" width="1024" height="576" xlink:href="97173E39.jpg"  transform="matrix(0.3896 0 0 0.6024 800.5 721.5)">
</image>
<image style="overflow:visible;" width="2048" height="1536" xlink:href="97173E3A.jpg"  transform="matrix(0.1953 0 0 0.2279 401 720)">
</image>
<image style="overflow:visible;" width="900" height="600" xlink:href="Stranger Things Color Palette - color-hex.com.png"  transform="matrix(1.3321 0 0 0.335 0 1540.9946)">
</image>
<rect y="1624" class="st0" width="1200" height="174"/>
<text transform="matrix(1 0 0 1 0 1642.6152)"><tspan x="0" y="0" class="st18 st16 st19">      #073e1e</tspan><tspan x="144.6" y="0" class="st18 st16 st19 st20">	</tspan><tspan x="180" y="0" class="st18 st16 st19">                  #3a5fe5</tspan><tspan x="404" y="0" class="st18 st16 st19 st21">	</tspan><tspan x="432" y="0" class="st18 st16 st19">                 #ff1515</tspan><tspan x="641.5" y="0" class="st18 st16 st19">	</tspan><tspan x="648" y="0" class="st18 st16 st19">                   #1e0707                   #1e193c</tspan><tspan x="1123.5" y="0" class="st18 st16 st19 st22">	</tspan></text>
</svg>
